<?xml version="1.0" encoding="utf-8" ?>
<svg xmlns="http://www.w3.org/2000/svg" xmlns:xlink="http://www.w3.org/1999/xlink" width="20" height="20" viewBox="0 0 20 20">
	<defs>
		<clipPath id="clipPath1647151806">
			<path transform="matrix(1 0 0 1 0 0)" d="M0 0L20 0L20 20L0 20L0 0Z" fill-rule="nonzero"/>
		</clipPath>
	</defs>
	<g clip-path="url(#clipPath1647151806)">
		<defs>
			<clipPath id="clipPath1441251282">
				<path transform="matrix(1 0 0 1 0 0)" d="M0 0L20 0L20 20L0 20L0 0Z" fill-rule="nonzero"/>
			</clipPath>
		</defs>
		<g clip-path="url(#clipPath1441251282)">
			<path transform="matrix(1 0 0 1 1.875 3.75)" d="M2.5 5L13.75 5L13.75 1.56437Q13.7488 1.17575 13.474 0.900953Q13.1993 0.626158 12.8125 0.625L3.43937 0.624997Q3.05075 0.626158 2.77595 0.900953Q2.50116 1.17575 2.5 1.5625L2.5 5ZM15 5.25311L15 1.56063Q14.9973 0.656439 14.3579 0.0170701Q13.7186 -0.622297 12.8125 -0.625L3.43563 -0.624997Q2.53144 -0.622297 1.89207 0.0170695Q1.2527 0.656436 1.25 1.5625L1.25 5.25293Q0.728188 5.48172 0.292454 5.91745Q-0.621178 6.83109 -0.625 8.125L-0.625 12.5C-0.625 12.8452 -0.345175 13.125 0 13.125C0.345175 13.125 0.625 12.8452 0.625 12.5L0.625 8.125Q0.627292 7.35038 1.17634 6.80134Q1.72506 6.25261 2.50094 6.25L13.75 6.25Q14.5246 6.25229 15.0737 6.80134Q15.6227 7.35038 15.625 8.12685L15.625 12.5C15.625 12.8452 15.9048 13.125 16.25 13.125C16.5952 13.125 16.875 12.8452 16.875 12.5L16.875 8.12315Q16.8712 6.83109 15.9575 5.91745Q15.522 5.48189 15 5.25311Z" fill-rule="evenodd" fill="rgb(107, 114, 128)"/>
			<path transform="matrix(1 0 0 1 1.875 7.5)" d="M8.75 1.875L8.75 1.25Q8.75134 0.991825 8.93408 0.809081Q9.11682 0.626343 9.375 0.625L12.4983 0.624998Q12.7576 0.625723 12.9409 0.809083Q13.1243 0.992444 13.125 1.25L13.125 1.875C13.125 2.22018 13.4048 2.5 13.75 2.5C14.0952 2.5 14.375 2.22018 14.375 1.875L14.375 1.25Q14.3728 0.473226 13.8248 -0.0748014Q13.2768 -0.622828 12.5017 -0.624998L9.37325 -0.624998Q8.65039 -0.622973 8.125 -0.146099Q7.59961 -0.622973 6.87675 -0.624997L3.75 -0.625Q2.97323 -0.622827 2.4252 -0.0748005Q2.40807 -0.0576729 2.39148 -0.0403271Q1.87711 0.497446 1.875 1.24825L1.875 1.875C1.875 2.22018 2.15482 2.5 2.5 2.5C2.84518 2.5 3.125 2.22018 3.125 1.875L3.125 1.25103Q3.12598 0.992186 3.30908 0.809083Q3.49244 0.625724 3.75 0.625L6.87325 0.624998Q7.13256 0.625724 7.31592 0.809084Q7.49928 0.992443 7.5 1.25L7.5 1.875C7.5 2.22018 7.77983 2.5 8.125 2.5C8.47017 2.5 8.75 2.22018 8.75 1.875ZM-0.625 8.4375L-0.625 8.75C-0.625 9.09517 -0.345175 9.375 0 9.375C0.345175 9.375 0.625 9.09517 0.625 8.75L0.625 8.4375Q0.625375 8.30928 0.717325 8.21733Q0.809277 8.12537 0.939313 8.125L15.3125 8.125Q15.4407 8.12537 15.5327 8.21733Q15.6246 8.30928 15.625 8.43932L15.625 8.75C15.625 9.09517 15.9048 9.375 16.25 9.375C16.5952 9.375 16.875 9.09517 16.875 8.75L16.875 8.43568Q16.8731 7.79001 16.4166 7.33344Q15.96 6.87688 15.3125 6.875L0.935687 6.875Q0.290007 6.87688 -0.166557 7.33344Q-0.623123 7.79001 -0.625 8.4375Z" fill-rule="evenodd" fill="rgb(107, 114, 128)"/>
		</g>
	</g>
</svg>
