<?xml version="1.0" encoding="utf-8" ?>
<svg xmlns="http://www.w3.org/2000/svg" xmlns:xlink="http://www.w3.org/1999/xlink" width="16" height="16" viewBox="0 0 16 16">
	<defs>
		<clipPath id="clipPath8944168542">
			<path transform="matrix(1 0 0 1 0 0)" d="M0 0L16 0L16 16L0 16L0 0Z" fill-rule="nonzero"/>
		</clipPath>
	</defs>
	<g clip-path="url(#clipPath8944168542)">
		<defs>
			<clipPath id="clipPath0682548251">
				<path transform="matrix(1 0 0 1 0 0)" d="M0 0L16 0L16 16L0 16L0 0Z" fill-rule="nonzero"/>
			</clipPath>
		</defs>
		<g clip-path="url(#clipPath0682548251)">
			<path transform="matrix(1 0 0 1 3.5 1.5)" d="M-0.5 8.5Q-0.5 7.53254 0.0206591 6.44088Q0.318892 5.81558 1.10022 4.61789Q1.58153 3.88008 1.79789 3.50865Q2.14962 2.90481 2.34167 2.4073Q2.80144 1.21625 2.51629 0.126579Q2.50382 0.0789374 2.50089 0.0297792Q2.49795 -0.0193791 2.50467 -0.068165Q2.51138 -0.116951 2.52748 -0.16349Q2.54359 -0.210028 2.56846 -0.252532Q2.59333 -0.295035 2.62602 -0.331869Q2.6587 -0.368703 2.69795 -0.398452Q2.73719 -0.428202 2.78149 -0.449724Q2.82578 -0.471246 2.87342 -0.483712Q2.93566 -0.5 3 -0.5Q3.9417 -0.5 5.05093 0.117884Q6.19796 0.756821 7.15176 1.86058Q8.21952 3.09624 8.81984 4.67373Q9.5 6.461 9.5 8.5Q9.5 10.5711 8.03553 12.0355Q6.57107 13.5 4.5 13.5Q2.42893 13.5 0.964466 12.0355Q-0.5 10.5711 -0.5 8.5L-0.5 8.5ZM0.5 8.5Q0.5 10.1569 1.67157 11.3284Q2.84315 12.5 4.5 12.5Q6.15685 12.5 7.32843 11.3284Q8.5 10.1569 8.5 8.5Q8.5 6.64484 7.88523 5.0294Q7.34761 3.61667 6.39512 2.51442Q5.5569 1.54441 4.5643 0.991491Q3.68197 0.5 3 0.5L3 0L3.48371 -0.126579Q3.85056 1.2753 3.27457 2.76742Q3.05383 3.33927 2.66198 4.01198Q2.4329 4.40527 1.93775 5.16427Q1.19282 6.30618 0.923255 6.87137Q0.5 7.7588 0.5 8.5L0.5 8.5Z" fill-rule="nonzero" fill="rgb(245, 158, 11)"/>
			<path transform="matrix(1 0 0 1 6 7.5)" d="M4.5 4Q4.5 5.45822 3.73959 6.26846Q3.39173 6.6391 2.91961 6.82741Q2.48689 7 2 7Q1.51312 7 1.08039 6.8274Q0.608265 6.6391 0.260415 6.26846Q-0.5 5.45822 -0.5 4Q-0.5 3.32847 -0.287825 2.65589Q-0.16634 2.27079 0.133662 1.61963Q0.393378 1.05591 0.465987 0.796564Q0.571175 0.420862 0.508831 0.0935561Q0.499616 0.0451801 0.500017 -0.00406397Q0.500417 -0.053308 0.510416 -0.101528Q0.520416 -0.149748 0.539631 -0.19509Q0.558845 -0.240432 0.586537 -0.281155Q0.614228 -0.321878 0.649332 -0.356415Q0.684436 -0.390953 0.725603 -0.417979Q0.76677 -0.445005 0.812419 -0.46348Q0.858068 -0.481955 0.906444 -0.491169Q0.952805 -0.5 1 -0.5Q1.63313 -0.5 2.30446 -0.0414991Q2.88776 0.356884 3.39095 1.02206Q3.88937 1.68095 4.18182 2.43295Q4.5 3.25111 4.5 4ZM3.5 4Q3.5 3.43871 3.24982 2.7954Q3.00784 2.17319 2.59343 1.62536Q2.18883 1.0905 1.74047 0.784282Q1.32423 0.5 1 0.5L1 0L1.49117 -0.0935561Q1.59744 0.464383 1.42896 1.06617Q1.3349 1.40211 1.04191 2.03807Q0.768331 2.63187 0.665846 2.95674Q0.5 3.48246 0.5 4Q0.5 5.06246 0.989585 5.58412Q1.37989 6 2 6Q2.62011 6 3.01041 5.58412Q3.5 5.06246 3.5 4Z" fill-rule="nonzero" fill="rgb(245, 158, 11)"/>
		</g>
	</g>
</svg>
