<?xml version="1.0" encoding="utf-8" ?>
<svg xmlns="http://www.w3.org/2000/svg" xmlns:xlink="http://www.w3.org/1999/xlink" width="192" height="192" viewBox="0 0 192 192">
	<defs>
		<clipPath id="clipPath4015325497">
			<path transform="matrix(1 0 0 1 0 0)" d="M0 0L192 0L192 192L0 192L0 0Z" fill-rule="nonzero"/>
		</clipPath>
	</defs>
	<g clip-path="url(#clipPath4015325497)">
		<path transform="matrix(1 0 0 1 113.275 58.7962)" d="M10.0434 1.71661e-05C6.753 0.00182152 4.10695 1.30847 2.10524 3.91997C0.103535 6.53147 -0.470726 9.42614 0.382461 12.604C1.23566 15.7819 3.18252 17.9997 6.22304 19.2574C9.26356 20.5152 12.2082 20.3208 15.0571 18.6744C17.9059 17.0279 19.5444 14.5735 19.9726 11.3111C20.4007 8.04862 19.451 5.25453 17.1234 2.92877C16.1854 1.98885 15.1029 1.2651 13.8758 0.757513C12.6488 0.249925 11.3713 -0.00257301 10.0434 1.71661e-05Z" fill-rule="nonzero" fill="rgb(0, 122, 255)"/>
		<path transform="matrix(1 0 0 1 11.986 12.0008)" d="M167.054 6.77165C167.053 6.76606 167.053 6.76043 167.053 6.75477C167.053 6.74911 167.053 6.74349 167.054 6.7379C166.731 5.32013 166.058 4.09425 165.035 3.06025C164.013 2.02626 162.794 1.33964 161.38 1.0004C150.205 -1.72585 132.625 1.1804 113.144 8.9804C93.509 16.8554 75.1115 28.4804 62.6765 40.9379C60.6837 42.9202 58.7627 44.9698 56.9135 47.0868C55.0644 49.2038 53.2916 51.3829 51.5953 53.6241C43.2215 53.2491 35.8453 54.4416 29.6315 57.1529C7.97902 66.6816 1.79527 91.0679 0.149023 101.08C-0.361789 104.131 0.440595 106.784 2.55618 109.041C4.67176 111.297 7.26812 112.269 10.3453 111.955L10.394 111.955L34.514 109.323C34.544 109.63 34.5778 109.912 34.604 110.17C34.7589 111.64 35.1549 113.041 35.792 114.375C36.429 115.708 37.2705 116.897 38.3165 117.94L50.0878 129.719C51.13 130.767 52.3176 131.609 53.6504 132.247C54.9833 132.885 56.3845 133.281 57.854 133.435L58.6603 133.522L56.0353 157.612L56.0353 157.66C55.7514 160.406 56.5285 162.808 58.3666 164.868C60.2048 166.927 62.5039 167.971 65.264 167.999C65.5247 167.999 65.785 167.989 66.0448 167.968C66.3046 167.946 66.5631 167.914 66.8203 167.872C76.889 166.252 101.264 160.143 110.767 138.374C113.455 132.202 114.644 124.855 114.31 116.497C116.562 114.804 118.75 113.033 120.874 111.184C122.999 109.335 125.055 107.412 127.042 105.415C139.578 92.9429 151.24 74.6954 159.033 55.3454C166.792 36.0854 169.713 18.3742 167.054 6.77165ZM126.907 72.3516C122.604 76.6583 117.41 78.8127 111.322 78.8148C105.235 78.8169 100.039 76.6661 95.7336 72.3625C91.4285 68.0588 89.2759 62.8633 89.2759 56.776C89.2759 50.6887 91.4285 45.4932 95.7336 41.1896C100.039 36.8859 105.235 34.7352 111.322 34.7373C117.41 34.7394 122.604 36.8938 126.907 41.2004C131.254 45.4823 133.427 50.6742 133.427 56.776C133.427 62.8779 131.254 68.0697 126.907 72.3516Z" fill-rule="nonzero" fill="rgb(0, 122, 255)"/>
		<path transform="matrix(1 0 0 1 17.9977 125.99)" d="M42.726 18.9246C42.0005 18.8346 41.2825 18.8759 40.572 19.0483C39.8616 19.2207 39.2046 19.5133 38.601 19.9259C36.2048 21.5646 33.7973 23.1847 31.3673 24.7634C26.451 27.9584 20.571 22.3484 23.4923 17.2634L28.0485 9.3884C28.7138 8.41526 29.062 7.33949 29.0932 6.16111C29.1244 4.98273 28.8336 3.89004 28.2207 2.88306C27.6079 1.8761 26.771 1.11576 25.71 0.602051C24.649 0.088356 23.5335 -0.096611 22.3635 0.0471497C19.8351 0.366898 17.4266 1.08751 15.138 2.20898C12.8495 3.33047 10.8042 4.79235 9.0023 6.59465C7.6298 7.9709 3.45605 12.1484 1.2098 28.0671C0.890112 30.3534 0.629577 32.6463 0.428194 34.946C0.226809 37.2456 0.0848432 39.5489 0.00229597 41.8559C-0.0409427 43.5427 0.526411 44.9901 1.70436 46.1983C2.8823 47.4064 4.31495 48.0102 6.0023 48.0096L6.1523 48.0096C8.46106 47.9279 10.7662 47.787 13.0677 47.5868C15.3692 47.3867 17.6641 47.1276 19.9523 46.8096C35.8785 44.5596 40.056 40.3821 41.4285 39.0096C43.2392 37.2069 44.7035 35.1568 45.8214 32.8593C46.9393 30.5618 47.6488 28.1444 47.9498 25.6071C48.1505 23.9634 47.741 22.4892 46.7211 21.1846C45.7013 19.88 44.3696 19.1267 42.726 18.9246Z" fill-rule="nonzero" fill="rgb(0, 122, 255)"/>
	</g>
</svg>
