<?xml version="1.0" encoding="utf-8" ?>
<svg xmlns="http://www.w3.org/2000/svg" xmlns:xlink="http://www.w3.org/1999/xlink" width="24" height="24" viewBox="0 0 24 24">
	<defs>
		<clipPath id="clipPath0972057427">
			<path transform="matrix(1 0 0 1 0 0)" d="M0 0L24 0L24 24L0 24L0 0Z" fill-rule="nonzero"/>
		</clipPath>
	</defs>
	<g clip-path="url(#clipPath0972057427)">
		<path transform="matrix(1 0 0 1 4.5 6.28125)" d="M10.8314 1.2353Q11.0521 1.12661 11.1986 0.94412Q11.4491 0.632026 11.3811 0.252371Q11.3116 -0.136356 10.9416 -0.360322Q10.597 -0.568997 9.79879 -0.657537Q8.96524 -0.75 7.5 -0.75Q4.08274 -0.75 1.66637 1.66637Q-0.75 4.08274 -0.75 7.5Q-0.75 10.9173 1.66637 13.3336Q4.08274 15.75 7.5 15.75Q10.9173 15.75 13.3336 13.3336Q15.75 10.9173 15.75 7.5C15.75 7.08579 15.4142 6.75 15 6.75C14.5858 6.75 14.25 7.08579 14.25 7.5Q14.25 10.2959 12.273 12.273Q10.2959 14.25 7.5 14.25Q4.70406 14.25 2.72703 12.273Q0.75 10.2959 0.75 7.5Q0.75 4.70406 2.72703 2.72703Q4.70406 0.75 7.5 0.75Q8.8823 0.75 9.63342 0.833319Q9.72781 0.843789 9.80947 0.855252C9.81499 0.868227 9.8209 0.881123 9.8272 0.893927C10.0102 1.2655 10.4599 1.41834 10.8314 1.2353Z" fill-rule="evenodd" fill="rgb(0, 122, 255)"/>
		<path transform="matrix(1 0 0 1 12 2.71875)" d="M-0.53033 0.53033C-0.823221 0.237439 -0.823221 -0.237439 -0.53033 -0.53033C-0.237439 -0.823221 0.237439 -0.823221 0.53033 -0.53033L4.28033 3.21967Q4.33256 3.2719 4.3736 3.33332Q4.41464 3.39474 4.44291 3.46299Q4.47118 3.53123 4.48559 3.60368Q4.5 3.67613 4.5 3.75Q4.5 3.82387 4.48559 3.89632Q4.47118 3.96877 4.44291 4.03701Q4.41464 4.10526 4.3736 4.16668Q4.33256 4.2281 4.28033 4.28033L0.53033 8.03033C0.237439 8.32322 -0.237439 8.32322 -0.53033 8.03033C-0.823221 7.73744 -0.823221 7.26256 -0.53033 6.96967L2.68934 3.75L-0.53033 0.53033Z" fill-rule="evenodd" fill="rgb(0, 122, 255)"/>
	</g>
</svg>
