<?xml version="1.0" encoding="utf-8" ?>
<svg xmlns="http://www.w3.org/2000/svg" xmlns:xlink="http://www.w3.org/1999/xlink" width="24" height="24" viewBox="0 0 24 24">
	<defs>
		<clipPath id="clipPath3118933995">
			<path transform="matrix(1 0 0 1 0 0)" d="M0 0L24 0L24 24L0 24L0 0Z" fill-rule="nonzero"/>
		</clipPath>
	</defs>
	<g clip-path="url(#clipPath3118933995)">
		<defs>
			<clipPath id="clipPath5829421502">
				<path transform="matrix(1 0 0 1 0 0)" d="M0 0L24 0L24 24L0 24L0 0Z" fill-rule="nonzero"/>
			</clipPath>
		</defs>
		<g clip-path="url(#clipPath5829421502)">
			<path transform="matrix(1 0 0 1 1.5 4.5)" d="M12.9655 -0.71837C12.5688 -0.837392 12.1507 -0.612252 12.0316 -0.215511L7.53163 14.7845C7.41261 15.1812 7.63775 15.5993 8.03449 15.7184C8.43123 15.8374 8.84935 15.6123 8.96837 15.2155L13.4684 0.215511C13.5874 -0.18123 13.3623 -0.599347 12.9655 -0.71837ZM6.56443 1.75612C6.29167 1.4444 5.81785 1.41281 5.50612 1.68557L-0.493878 6.93557Q-0.531507 6.96849 -0.564433 7.00612Q-0.662671 7.11839 -0.710467 7.25971Q-0.758263 7.40103 -0.748339 7.54989Q-0.738415 7.69874 -0.672283 7.83247Q-0.606151 7.96619 -0.493878 8.06443L5.50612 13.3144C5.81785 13.5872 6.29167 13.5556 6.56443 13.2439C6.83719 12.9322 6.8056 12.4583 6.49388 12.1856L1.13894 7.5L6.49388 2.81443C6.8056 2.54167 6.83719 2.06785 6.56443 1.75612ZM14.5061 2.81443C14.1944 2.54167 14.1628 2.06785 14.4356 1.75612C14.7083 1.4444 15.1822 1.41281 15.4939 1.68557L21.4939 6.93557Q21.5315 6.96849 21.5644 7.00612Q21.6627 7.11839 21.7105 7.25972Q21.7583 7.40104 21.7483 7.54989Q21.7384 7.69874 21.6723 7.83247Q21.6061 7.96619 21.4939 8.06443L15.4939 13.3144C15.1822 13.5872 14.7083 13.5556 14.4356 13.2439C14.1628 12.9322 14.1944 12.4583 14.5061 12.1856L19.8611 7.5L14.5061 2.81443Z" fill-rule="evenodd" fill="rgb(0, 122, 255)"/>
		</g>
	</g>
</svg>
